<svg width="210" height="28" viewBox="0 0 210 28" fill="none" xmlns="http://www.w3.org/2000/svg">
<path d="M5.416 16.236V19.296C5.416 20.496 5.692 21.456 6.244 22.176C6.796 22.896 7.672 23.256 8.872 23.256C9.88 23.256 10.672 22.932 11.248 22.284C11.824 21.612 12.112 20.724 12.112 19.62V19.116H16.648V19.692C16.648 22.068 15.964 23.928 14.596 25.272C13.228 26.616 11.356 27.288 8.98 27.288C6.388 27.288 4.36 26.544 2.896 25.056C1.432 23.544 0.7 21.516 0.7 18.972V12.312H5.812C7.708 12.312 9.268 11.94 10.492 11.196C11.716 10.428 12.328 9.24 12.328 7.632C12.328 6.552 12.028 5.688 11.428 5.04C10.852 4.392 10.06 4.068 9.052 4.068C8.044 4.068 7.252 4.392 6.676 5.04C6.1 5.688 5.812 6.552 5.812 7.632L5.848 9H1.24C1.168 8.496 1.132 7.992 1.132 7.488C1.132 6.024 1.456 4.728 2.104 3.6C2.752 2.472 3.676 1.596 4.876 0.971998C6.076 0.347999 7.468 0.0359995 9.052 0.0359995C11.452 0.0359995 13.372 0.731999 14.812 2.124C16.276 3.492 17.008 5.424 17.008 7.92C17.008 10.632 16.12 12.696 14.344 14.112C12.592 15.528 10.312 16.236 7.504 16.236H5.416ZM28.996 0.36V4.248H25V27H20.284V0.36H28.996ZM29.6744 27V4.248H25.6784V0.36H38.3144V4.248H34.3184V27H29.6744ZM42.8718 15.696V19.764C42.8718 20.844 43.1118 21.72 43.5918 22.392C44.0958 23.04 44.8278 23.364 45.7878 23.364C46.6758 23.364 47.3718 23.064 47.8758 22.464C48.4038 21.84 48.6678 21.024 48.6678 20.016V19.116H53.1318C53.1558 19.332 53.1678 19.584 53.1678 19.872C53.1678 22.152 52.5198 23.964 51.2238 25.308C49.9278 26.652 48.1398 27.324 45.8598 27.324C43.4118 27.324 41.5278 26.604 40.2078 25.164C38.9118 23.724 38.2638 21.852 38.2638 19.548V11.916H41.9718C43.8918 11.916 45.2838 11.484 46.1478 10.62C47.0358 9.732 47.4798 8.436 47.4798 6.732V4.248H34.9878V0.36H55.6518V4.248H52.1238V6.732C52.1238 12.708 49.3038 15.696 43.6638 15.696H42.8718ZM65.3431 11.52C63.7591 11.52 62.4751 11.928 61.4911 12.744C60.5071 13.56 60.0151 14.7 60.0151 16.164C60.0151 17.484 60.4111 18.54 61.2031 19.332C61.9951 20.1 63.0511 20.484 64.3711 20.484C65.4511 20.484 66.3751 20.148 67.1431 19.476C67.9351 18.804 68.3311 17.844 68.3311 16.596H72.6151V27.972H68.0791V22.032C67.5511 22.728 66.8551 23.268 65.9911 23.652C65.1271 24.012 64.1431 24.192 63.0391 24.192C61.5991 24.192 60.2911 23.88 59.1151 23.256C57.9391 22.632 57.0031 21.708 56.3071 20.484C55.6111 19.26 55.2631 17.772 55.2631 16.02C55.2631 14.22 55.6711 12.684 56.4871 11.412C57.3271 10.116 58.4671 9.144 59.9071 8.496C61.3711 7.848 63.0271 7.524 64.8751 7.524H66.6751V4.248H52.3831V0.36H75.8911L75.8551 4.248H71.3551V11.52H65.3431ZM76.5869 27V4.248H72.5909V0.36H85.2269V4.248H81.2309V27H76.5869Z" fill="#ED8936"/>
<path d="M92.0019 17.1C92.0019 15.06 92.4099 13.284 93.2259 11.772C94.0419 10.236 95.1699 9.048 96.6099 8.208C98.0739 7.368 99.7419 6.948 101.614 6.948C104.038 6.948 106.03 7.536 107.59 8.712C109.174 9.888 110.218 11.52 110.722 13.608H107.194C106.858 12.408 106.198 11.46 105.214 10.764C104.254 10.068 103.054 9.72 101.614 9.72C99.7419 9.72 98.2299 10.368 97.0779 11.664C95.9259 12.936 95.3499 14.748 95.3499 17.1C95.3499 19.476 95.9259 21.312 97.0779 22.608C98.2299 23.904 99.7419 24.552 101.614 24.552C103.054 24.552 104.254 24.216 105.214 23.544C106.174 22.872 106.834 21.912 107.194 20.664H110.722C110.194 22.68 109.138 24.3 107.554 25.524C105.97 26.724 103.99 27.324 101.614 27.324C99.7419 27.324 98.0739 26.904 96.6099 26.064C95.1699 25.224 94.0419 24.036 93.2259 22.5C92.4099 20.964 92.0019 19.164 92.0019 17.1ZM115.921 0.36V27H113.401V0.36H115.921ZM118.676 17.136C118.676 15.12 119.072 13.356 119.864 11.844C120.68 10.308 121.796 9.132 123.212 8.316C124.652 7.476 126.272 7.056 128.072 7.056C129.944 7.056 131.552 7.488 132.896 8.352C134.264 9.216 135.248 10.32 135.848 11.664V7.344H138.368V27H135.848V22.644C135.224 23.988 134.228 25.104 132.86 25.992C131.516 26.856 129.908 27.288 128.036 27.288C126.26 27.288 124.652 26.868 123.212 26.028C121.796 25.188 120.68 24 119.864 22.464C119.072 20.928 118.676 19.152 118.676 17.136ZM135.848 17.172C135.848 15.588 135.524 14.196 134.876 12.996C134.228 11.796 133.34 10.872 132.212 10.224C131.108 9.576 129.884 9.252 128.54 9.252C127.148 9.252 125.9 9.564 124.796 10.188C123.692 10.812 122.816 11.724 122.168 12.924C121.544 14.1 121.232 15.504 121.232 17.136C121.232 18.744 121.544 20.16 122.168 21.384C122.816 22.584 123.692 23.508 124.796 24.156C125.9 24.78 127.148 25.092 128.54 25.092C129.884 25.092 131.108 24.768 132.212 24.12C133.34 23.472 134.228 22.548 134.876 21.348C135.524 20.148 135.848 18.756 135.848 17.172ZM149.089 27.288C146.833 27.288 144.985 26.772 143.545 25.74C142.129 24.684 141.337 23.256 141.169 21.456H143.761C143.881 22.56 144.397 23.46 145.309 24.156C146.245 24.828 147.493 25.164 149.053 25.164C150.421 25.164 151.489 24.84 152.257 24.192C153.049 23.544 153.445 22.74 153.445 21.78C153.445 21.108 153.229 20.556 152.797 20.124C152.365 19.692 151.813 19.356 151.141 19.116C150.493 18.852 149.605 18.576 148.477 18.288C147.013 17.904 145.825 17.52 144.913 17.136C144.001 16.752 143.221 16.188 142.573 15.444C141.949 14.676 141.637 13.656 141.637 12.384C141.637 11.424 141.925 10.536 142.501 9.72C143.077 8.904 143.893 8.256 144.949 7.776C146.005 7.296 147.205 7.056 148.549 7.056C150.661 7.056 152.365 7.596 153.661 8.676C154.957 9.732 155.653 11.196 155.749 13.068H153.229C153.157 11.916 152.701 10.992 151.861 10.296C151.045 9.576 149.917 9.216 148.477 9.216C147.205 9.216 146.173 9.516 145.381 10.116C144.589 10.716 144.193 11.46 144.193 12.348C144.193 13.116 144.421 13.752 144.877 14.256C145.357 14.736 145.945 15.12 146.641 15.408C147.337 15.672 148.273 15.972 149.449 16.308C150.865 16.692 151.993 17.064 152.833 17.424C153.673 17.784 154.393 18.312 154.993 19.008C155.593 19.704 155.905 20.628 155.929 21.78C155.929 22.836 155.641 23.784 155.065 24.624C154.489 25.44 153.685 26.088 152.653 26.568C151.621 27.048 150.433 27.288 149.089 27.288ZM165.64 27.288C163.384 27.288 161.536 26.772 160.096 25.74C158.68 24.684 157.888 23.256 157.72 21.456H160.312C160.432 22.56 160.948 23.46 161.86 24.156C162.796 24.828 164.044 25.164 165.604 25.164C166.972 25.164 168.04 24.84 168.808 24.192C169.6 23.544 169.996 22.74 169.996 21.78C169.996 21.108 169.78 20.556 169.348 20.124C168.916 19.692 168.364 19.356 167.692 19.116C167.044 18.852 166.156 18.576 165.028 18.288C163.564 17.904 162.376 17.52 161.464 17.136C160.552 16.752 159.772 16.188 159.124 15.444C158.5 14.676 158.188 13.656 158.188 12.384C158.188 11.424 158.476 10.536 159.052 9.72C159.628 8.904 160.444 8.256 161.5 7.776C162.556 7.296 163.756 7.056 165.1 7.056C167.212 7.056 168.916 7.596 170.212 8.676C171.508 9.732 172.204 11.196 172.3 13.068H169.78C169.708 11.916 169.252 10.992 168.412 10.296C167.596 9.576 166.468 9.216 165.028 9.216C163.756 9.216 162.724 9.516 161.932 10.116C161.14 10.716 160.744 11.46 160.744 12.348C160.744 13.116 160.972 13.752 161.428 14.256C161.908 14.736 162.496 15.12 163.192 15.408C163.888 15.672 164.824 15.972 166 16.308C167.416 16.692 168.544 17.064 169.384 17.424C170.224 17.784 170.944 18.312 171.544 19.008C172.144 19.704 172.456 20.628 172.48 21.78C172.48 22.836 172.192 23.784 171.616 24.624C171.04 25.44 170.236 26.088 169.204 26.568C168.172 27.048 166.984 27.288 165.64 27.288ZM193.208 16.164C193.208 17.028 193.184 17.688 193.136 18.144H176.828C176.9 19.632 177.26 20.904 177.908 21.96C178.556 23.016 179.408 23.82 180.464 24.372C181.52 24.9 182.672 25.164 183.92 25.164C185.552 25.164 186.92 24.768 188.024 23.976C189.152 23.184 189.896 22.116 190.256 20.772H192.92C192.44 22.692 191.408 24.264 189.824 25.488C188.264 26.688 186.296 27.288 183.92 27.288C182.072 27.288 180.416 26.88 178.952 26.064C177.488 25.224 176.336 24.048 175.496 22.536C174.68 21 174.272 19.212 174.272 17.172C174.272 15.132 174.68 13.344 175.496 11.808C176.312 10.272 177.452 9.096 178.916 8.28C180.38 7.464 182.048 7.056 183.92 7.056C185.792 7.056 187.424 7.464 188.816 8.28C190.232 9.096 191.312 10.2 192.056 11.592C192.824 12.96 193.208 14.484 193.208 16.164ZM190.652 16.092C190.676 14.628 190.376 13.38 189.752 12.348C189.152 11.316 188.324 10.536 187.268 10.008C186.212 9.48 185.06 9.216 183.812 9.216C181.94 9.216 180.344 9.816 179.024 11.016C177.704 12.216 176.972 13.908 176.828 16.092H190.652ZM202.786 27.288C200.53 27.288 198.682 26.772 197.242 25.74C195.826 24.684 195.034 23.256 194.866 21.456H197.458C197.578 22.56 198.094 23.46 199.006 24.156C199.942 24.828 201.19 25.164 202.75 25.164C204.118 25.164 205.186 24.84 205.954 24.192C206.746 23.544 207.142 22.74 207.142 21.78C207.142 21.108 206.926 20.556 206.494 20.124C206.062 19.692 205.51 19.356 204.838 19.116C204.19 18.852 203.302 18.576 202.174 18.288C200.71 17.904 199.522 17.52 198.61 17.136C197.698 16.752 196.918 16.188 196.27 15.444C195.646 14.676 195.334 13.656 195.334 12.384C195.334 11.424 195.622 10.536 196.198 9.72C196.774 8.904 197.59 8.256 198.646 7.776C199.702 7.296 200.902 7.056 202.246 7.056C204.358 7.056 206.062 7.596 207.358 8.676C208.654 9.732 209.35 11.196 209.446 13.068H206.926C206.854 11.916 206.398 10.992 205.558 10.296C204.742 9.576 203.614 9.216 202.174 9.216C200.902 9.216 199.87 9.516 199.078 10.116C198.286 10.716 197.89 11.46 197.89 12.348C197.89 13.116 198.118 13.752 198.574 14.256C199.054 14.736 199.642 15.12 200.338 15.408C201.034 15.672 201.97 15.972 203.146 16.308C204.562 16.692 205.69 17.064 206.53 17.424C207.37 17.784 208.09 18.312 208.69 19.008C209.29 19.704 209.602 20.628 209.626 21.78C209.626 22.836 209.338 23.784 208.762 24.624C208.186 25.44 207.382 26.088 206.35 26.568C205.318 27.048 204.13 27.288 202.786 27.288Z" fill="#171923"/>
</svg>
